<?xml version="1.0" encoding="UTF-8"?>
<svg width="25px" height="27px" viewBox="0 0 25 27" version="1.1" xmlns="http://www.w3.org/2000/svg" xmlns:xlink="http://www.w3.org/1999/xlink">
    <!-- Generator: Sketch 48.2 (47327) - http://www.bohemiancoding.com/sketch -->
    <title>Shape</title>
    <desc>Created with Sketch.</desc>
    <defs></defs>
    <g id="Artboard-2" stroke="none" stroke-width="1" fill="none" fill-rule="evenodd" transform="translate(-571.000000, -42.000000)">
        <g id="Group" transform="translate(571.000000, 42.000000)" fill="#17535C" fill-rule="nonzero">
            <g id="Shape">
                <path d="M5.91396486,20.6939455 L2.94586028,22.3145962 C1.64600218,20.8908961 0.696500139,19.210234 0.134136481,17.410641 L3.01286819,15.6370354 C2.70274282,14.2466998 2.69258333,12.7862834 3.0105738,11.361551 L0.131764352,9.58789757 C0.411119583,8.69787068 0.790443981,7.82447859 1.27374477,6.98275862 C1.75704556,6.14103865 2.31961282,5.37402558 2.94649181,4.68574866 L5.91349731,6.30579921 C6.98158644,5.31652578 8.24448412,4.59516454 9.59700616,4.17005494 L9.68519986,0.776442584 C11.5163236,0.366354295 13.4385844,0.352852945 15.3147087,0.772923833 L15.4029374,4.16788498 C16.0719957,4.37900114 16.7285444,4.66662754 17.3611111,5.03385509 C17.9936779,5.40108265 18.5696772,5.82899425 19.0860351,6.3060545 L22.0541397,4.6854038 C23.3539978,6.10910393 24.3034999,7.789766 24.8658635,9.58935901 L21.9871318,11.3629646 C22.2972572,12.7533002 22.3074167,14.2137166 21.9894262,15.638449 L24.8682356,17.4121024 C24.5888804,18.3021293 24.209556,19.1755214 23.7262552,20.0172414 C23.2429544,20.8589614 22.6803872,21.6259744 22.0535082,22.3142513 L19.0865027,20.6942008 C18.0184136,21.6834742 16.7555159,22.4048355 15.4029938,22.8299451 L15.3148001,26.2235574 C13.4836764,26.6336457 11.5614156,26.6471471 9.6852913,26.2270762 L9.59706259,22.832115 C8.92800426,22.6209989 8.27145565,22.3333725 7.63888889,21.9661449 C7.00632213,21.5989173 6.43032282,21.1710058 5.91396486,20.6939455 Z M9.72222222,18.3377971 C12.3794035,19.8803855 15.7771279,18.964945 17.3112522,16.2931034 C18.8453765,13.6212619 17.934959,10.2047914 15.2777778,8.66220294 C12.6205965,7.1196145 9.22287208,8.03505499 7.68874778,10.7068966 C6.15462347,13.3787381 7.06504097,16.7952086 9.72222222,18.3377971 Z"></path>
            </g>
        </g>
    </g>
</svg>