<?xml version="1.0" encoding="UTF-8"?>
<svg width="21px" height="22px" viewBox="0 0 21 22" version="1.1" xmlns="http://www.w3.org/2000/svg" xmlns:xlink="http://www.w3.org/1999/xlink">
    <!-- Generator: Sketch 48.2 (47327) - http://www.bohemiancoding.com/sketch -->
    <title>noun_1241194_cc</title>
    <desc>Created with Sketch.</desc>
    <defs></defs>
    <g id="Artboard-2" stroke="none" stroke-width="1" fill="none" fill-rule="evenodd" transform="translate(-545.000000, -47.000000)">
        <g id="noun_1241194_cc" transform="translate(545.000000, 47.000000)" fill="#17535C" fill-rule="nonzero">
            <path d="M19.9813717,3.14126182e-06 L1.01608806,3.14126182e-06 C0.45491812,3.14126182e-06 0,0.449403579 0,1.00376711 L0,3.84943797 C0,4.40380151 0.45491812,4.85320195 1.01608806,4.85320195 L1.35393734,4.85320195 L7.24724809,11.9623603 L7.24724809,20.996236 C7.24724809,21.5505996 7.70216622,22 8.26333616,22 L12.6147333,22 C13.1759032,22 13.6308213,21.5505996 13.6308213,20.996236 L13.6308213,11.9623603 L19.5317528,4.85320195 L19.9839119,4.85320195 C20.5450819,4.85320195 21,4.40380151 21,3.84943797 L21,1.00376711 C21.0000008,0.737117002 20.8926004,0.481424678 20.7014972,0.293110116 C20.5103939,0.104795555 20.2512949,-0.000663484018 19.9813717,3.14126182e-06 Z M2.0296359,2.00753109 L18.9652837,2.00753109 L18.9652837,2.84316459 L2.03217612,2.84316459 L2.0296359,2.00753109 Z M11.8298052,10.9661245 C11.6803528,11.1457294 11.5986487,11.3710165 11.5986452,11.6035147 L11.5986452,19.9849438 L9.27942422,19.9849438 L9.27942422,11.6035147 C9.27942074,11.3710165 9.19771668,11.1457294 9.04826418,10.9661245 L3.96782388,4.85320195 L16.9026249,4.85320195 L11.8298052,10.9661245 Z" id="Shape"></path>
        </g>
    </g>
</svg>