<?xml version="1.0" encoding="UTF-8"?>
<svg width="53px" height="53px" viewBox="0 0 53 53" version="1.1" xmlns="http://www.w3.org/2000/svg" xmlns:xlink="http://www.w3.org/1999/xlink">
    <!-- Generator: Sketch 48.2 (47327) - http://www.bohemiancoding.com/sketch -->
    <title>Page 1</title>
    <desc>Created with Sketch.</desc>
    <defs>
        <polygon id="path-1" points="0 0.318597744 52.5623714 0.318597744 52.5623714 53 0 53"></polygon>
    </defs>
    <g id="Artboard-2" stroke="none" stroke-width="1" fill="none" fill-rule="evenodd" transform="translate(-30.000000, -33.000000)">
        <g id="Page-1" transform="translate(30.000000, 33.000000)">
            <g id="Group-3">
                <mask id="mask-2" fill="white">
                    <use xlink:href="#path-1"></use>
                </mask>
                <g id="Clip-2"></g>
                <path d="M41.5171316,24.1083451 C41.5171316,33.9837992 33.5051256,42.0778955 23.6296714,42.0778955 C13.7542173,42.0778955 5.66833008,33.9837992 5.66833008,24.1083451 C5.66833008,14.232891 13.6803361,6.13879474 23.6296714,6.13879474 C33.5872158,6.13879474 41.5171316,14.1508008 41.5171316,24.1083451 M51.7127376,48.1443632 L42.0835541,38.5151797 C45.3999992,34.3039511 47.1813571,29.2061481 47.1813571,23.9441647 C47.1813571,10.9164459 36.583509,0.318597744 23.5475812,0.318597744 C10.5198624,0.318597744 -0.00410451128,10.9985361 -0.00410451128,24.0262549 C-0.00410451128,37.0539737 10.6019526,47.6600308 23.6296714,47.6600308 C28.8916549,47.6600308 34.0715481,45.8786729 38.2006865,42.5622278 L47.8298699,52.1914113 C48.3962925,52.7578338 49.0448053,53.0041045 49.7754083,53.0041045 C50.4978023,53.0041045 51.146315,52.7578338 51.7127376,52.1914113 C52.8455827,50.9764759 52.8455827,49.2772083 51.7127376,48.1443632" id="Fill-1" fill="#47CDC5" mask="url(#mask-2)"></path>
            </g>
            <path d="M16.198373,32 L16.0519399,32 C13.2534418,32 11,29.7522673 11,26.9608592 C11,24.3966587 12.9361702,22.2625298 15.4173967,21.9460621 C15.3604506,21.6863962 15.3279099,21.451074 15.3279099,21.1914081 C15.3279099,19.2033413 16.9468085,17.5966587 18.9399249,17.5966587 C19.4605757,17.5966587 19.9812265,17.7102625 20.4449312,17.9131265 C21.7140175,16.1522673 23.7966208,15 26.1639549,15 C30.0607009,15 33.2415519,18.1727924 33.2415519,22.0596659 L33.2415519,22.0921241 C35.4055069,22.6682578 37,24.6238663 37,26.9608592 C37,29.7522673 34.7465582,32 31.9399249,32 L31.7934919,32 L16.198373,32 Z" id="Fill-4" fill="#FF6A67"></path>
        </g>
    </g>
</svg>