<?xml version="1.0" encoding="UTF-8"?>
<svg width="6px" height="28px" viewBox="0 0 6 28" version="1.1" xmlns="http://www.w3.org/2000/svg" xmlns:xlink="http://www.w3.org/1999/xlink">
    <!-- Generator: Sketch 48.2 (47327) - http://www.bohemiancoding.com/sketch -->
    <title>noun_1062359_cc</title>
    <desc>Created with Sketch.</desc>
    <defs></defs>
    <g id="Artboard-2-Copy" stroke="none" stroke-width="1" fill="none" fill-rule="evenodd" transform="translate(-577.000000, -43.000000)">
        <g id="noun_1062359_cc" transform="translate(577.000000, 43.000000)" fill="#17535C" fill-rule="nonzero">
            <g id="Group">
                <path d="M6.00000375,3.04079636 C6.00000375,1.43417818 4.65682875,0.131705455 2.99999625,0.131705455 C1.34313375,0.131705455 -3.75e-06,1.43417818 -3.75e-06,3.04079636 C-3.75e-06,4.64745091 1.34313375,5.94988727 2.99999625,5.94988727 C4.65682875,5.94988727 6.00000375,4.64745091 6.00000375,3.04079636 Z M6.00000375,13.9498909 C6.00000375,12.3432691 4.65682875,11.0407964 2.99999625,11.0407964 C1.34313375,11.0407964 -3.75e-06,12.3432691 -3.75e-06,13.9498909 C-3.75e-06,15.5565455 1.34313375,16.8589818 2.99999625,16.8589818 C4.65682875,16.8589818 6.00000375,15.5565455 6.00000375,13.9498909 Z M6.00000375,24.8589818 C6.00000375,23.2523636 4.65682875,21.9498909 2.99999625,21.9498909 C1.34313375,21.9498909 -3.75e-06,23.2523636 -3.75e-06,24.8589818 C-3.75e-06,26.4656364 1.34313375,27.7680727 2.99999625,27.7680727 C4.65682875,27.7680727 6.00000375,26.4656364 6.00000375,24.8589818 Z" id="Shape"></path>
            </g>
        </g>
    </g>
</svg>